<?xml version="1.0" encoding="UTF-8" standalone="no"?>
<svg
   xmlns:dc="http://purl.org/dc/elements/1.1/"
   xmlns:cc="http://creativecommons.org/ns#"
   xmlns:rdf="http://www.w3.org/1999/02/22-rdf-syntax-ns#"
   xmlns:svg="http://www.w3.org/2000/svg"
   xmlns="http://www.w3.org/2000/svg"
   xmlns:sodipodi="http://sodipodi.sourceforge.net/DTD/sodipodi-0.dtd"
   xmlns:inkscape="http://www.inkscape.org/namespaces/inkscape"
   id="svg8"
   version="1.1"
   viewBox="0 0 16.933335 17.216675"
   height="17.216675mm"
   width="16.933334mm"
   sodipodi:docname="qx-white.svg"
   inkscape:version="0.92.2 (5c3e80d, 2017-08-06)">
  <sodipodi:namedview
     pagecolor="#ffffff"
     bordercolor="#666666"
     borderopacity="1"
     objecttolerance="10"
     gridtolerance="10"
     guidetolerance="10"
     inkscape:pageopacity="0"
     inkscape:pageshadow="2"
     inkscape:window-width="2260"
     inkscape:window-height="1081"
     id="namedview8"
     showgrid="false"
     fit-margin-top="0"
     fit-margin-left="0"
     fit-margin-right="0"
     fit-margin-bottom="0"
     inkscape:zoom="7.2536276"
     inkscape:cx="-25.979002"
     inkscape:cy="16.267732"
     inkscape:window-x="0"
     inkscape:window-y="55"
     inkscape:window-maximized="0"
     inkscape:current-layer="svg8" />
  <defs
     id="defs2" />
  <metadata
     id="metadata5">
    <rdf:RDF>
      <cc:Work
         rdf:about="">
        <dc:format>image/svg+xml</dc:format>
        <dc:type
           rdf:resource="http://purl.org/dc/dcmitype/StillImage" />
        <dc:title></dc:title>
      </cc:Work>
    </rdf:RDF>
  </metadata>
  <g
     transform="matrix(2,0,0,2,-125.67708,-371.33739)"
     id="layer1">
    <g
       transform="matrix(0.31547126,0,0,0.31547126,43.014787,132.98821)"
       style="fill:#ffffff"
       id="g990">
      <path
         style="fill:#ffffff;fill-opacity:1;stroke:none;stroke-width:0.2;stroke-miterlimit:4;stroke-dasharray:none;stroke-opacity:1;image-rendering:auto"
         d="m 75.784003,166.9898 a 12.945681,12.945681 0 0 0 -12.945462,12.94547 12.945681,12.945681 0 0 0 12.945462,12.94546 12.945681,12.945681 0 0 0 6.459037,-1.73943 l 3.135728,3.13573 4.297928,-4.29793 -3.019972,-3.01997 a 12.945681,12.945681 0 0 0 2.073259,-7.02386 12.945681,12.945681 0 0 0 -12.94598,-12.94547 z m -3.796668,4.78214 3.608049,3.60805 3.608049,-3.60805 4.743897,4.7439 -3.608049,3.60804 3.608049,3.60857 -4.743897,4.7439 -3.608049,-3.60805 -3.608049,3.60805 -4.744413,-4.7439 3.608567,-3.60857 -3.608567,-3.60804 z"
         id="path819"
         inkscape:connector-curvature="0" />
    </g>
  </g>
</svg>
