<?xml version="1.0" encoding="UTF-8" standalone="no"?>
<!-- Created with Inkscape (http://www.inkscape.org/) -->
<svg
   xmlns:dc="http://purl.org/dc/elements/1.1/"
   xmlns:cc="http://web.resource.org/cc/"
   xmlns:rdf="http://www.w3.org/1999/02/22-rdf-syntax-ns#"
   xmlns:svg="http://www.w3.org/2000/svg"
   xmlns="http://www.w3.org/2000/svg"
   xmlns:xlink="http://www.w3.org/1999/xlink"
   xmlns:sodipodi="http://sodipodi.sourceforge.net/DTD/sodipodi-0.dtd"
   xmlns:inkscape="http://www.inkscape.org/namespaces/inkscape"
   width="210mm"
   height="297mm"
   id="svg2"
   sodipodi:version="0.32"
   inkscape:version="0.45.1"
   sodipodi:docbase="/Users/fabianpb/Desktop"
   sodipodi:docname="verlauf.svg"
   inkscape:output_extension="org.inkscape.output.svg.inkscape">
  <defs
     id="defs4">
    <linearGradient
       id="linearGradient3143">
      <stop
         style="stop-color:#000000;stop-opacity:0.54509807;"
         offset="0"
         id="stop3145" />
      <stop
         id="stop3151"
         offset="0.07438017"
         style="stop-color:#9a9a9a;stop-opacity:0;" />
      <stop
         style="stop-color:#e6e6e6;stop-opacity:0;"
         offset="1"
         id="stop3147" />
    </linearGradient>
    <linearGradient
       inkscape:collect="always"
       xlink:href="#linearGradient3143"
       id="linearGradient3149"
       x1="-188.57141"
       y1="306.64789"
       x2="-188.57141"
       y2="498.84253"
       gradientUnits="userSpaceOnUse"
       gradientTransform="matrix(0.3855859,0,0,0.3855859,237.84711,9.0986859)" />
    <linearGradient
       inkscape:collect="always"
       xlink:href="#linearGradient3143"
       id="linearGradient3183"
       gradientUnits="userSpaceOnUse"
       gradientTransform="matrix(0.3855859,0,0,0.3855859,326.76974,434.35608)"
       x1="-188.57141"
       y1="306.64789"
       x2="-188.57141"
       y2="498.84253" />
  </defs>
  <sodipodi:namedview
     id="base"
     pagecolor="#ffffff"
     bordercolor="#666666"
     borderopacity="1.0"
     inkscape:pageopacity="0.0"
     inkscape:pageshadow="2"
     inkscape:zoom="1.920683"
     inkscape:cx="282.14333"
     inkscape:cy="481.58947"
     inkscape:document-units="px"
     inkscape:current-layer="layer1"
     inkscape:window-width="761"
     inkscape:window-height="852"
     inkscape:window-x="46"
     inkscape:window-y="64" />
  <metadata
     id="metadata7">
    <rdf:RDF>
      <cc:Work
         rdf:about="">
        <dc:format>image/svg+xml</dc:format>
        <dc:type
           rdf:resource="http://purl.org/dc/dcmitype/StillImage" />
      </cc:Work>
    </rdf:RDF>
  </metadata>
  <g
     inkscape:groupmode="layer"
     id="layer3"
     inkscape:label="hintergrund"
     style="display:inline">
    <rect
       style="opacity:1;fill:#000080;fill-opacity:1;stroke:none;stroke-width:1;stroke-linecap:butt;stroke-linejoin:miter;stroke-miterlimit:4;stroke-dasharray:none;stroke-dashoffset:0;stroke-opacity:1"
       id="rect3129"
       width="287.53696"
       height="206.01306"
       x="36.240738"
       y="68.949074"
       rx="4.1517859"
       ry="4.1517859" />
    <rect
       style="opacity:1;fill:#000080;fill-opacity:1;stroke:none;stroke-width:1;stroke-linecap:butt;stroke-linejoin:miter;stroke-miterlimit:4;stroke-dasharray:none;stroke-dashoffset:0;stroke-opacity:1;display:inline"
       id="rect3177"
       width="287.53696"
       height="206.01306"
       x="125.16337"
       y="494.20648"
       rx="4.1517859"
       ry="4.1517859" />
  </g>
  <g
     inkscape:label="Ebene 1"
     inkscape:groupmode="layer"
     id="layer1"
     style="display:inline">
    <rect
       style="opacity:1;fill:url(#linearGradient3149);fill-opacity:1;stroke:none;stroke-width:1;stroke-linecap:butt;stroke-linejoin:miter;stroke-miterlimit:4;stroke-dasharray:none;stroke-dashoffset:0;stroke-opacity:1"
       id="rect3141"
       width="259.99509"
       height="73.812164"
       x="48.359161"
       y="127.33781"
       rx="4.1517859"
       ry="4.1517859"
       inkscape:export-xdpi="90"
       inkscape:export-ydpi="90" />
    <rect
       style="opacity:1;fill:url(#linearGradient3183);fill-opacity:1;stroke:none;stroke-width:1;stroke-linecap:butt;stroke-linejoin:miter;stroke-miterlimit:4;stroke-dasharray:none;stroke-dashoffset:0;stroke-opacity:1;display:inline"
       id="rect3179"
       width="259.99509"
       height="73.812164"
       x="137.2818"
       y="552.59521"
       rx="4.1517859"
       ry="4.1517859"
       inkscape:export-xdpi="90"
       inkscape:export-ydpi="90"
       inkscape:export-filename="/Users/fabianpb/Desktop/gradient-pressed.png" />
  </g>
  <g
     inkscape:groupmode="layer"
     id="layer2"
     inkscape:label="maske"
     style="display:inline">
    <path
       style="opacity:1;fill:#e6e6e6;fill-opacity:1;stroke:none;stroke-width:1;stroke-linecap:butt;stroke-linejoin:miter;stroke-miterlimit:4;stroke-dasharray:none;stroke-dashoffset:0;stroke-opacity:1"
       d="M 19.104543,16.068496 C 18.21766,16.068496 17.501951,16.784201 17.501951,17.671088 L 17.501951,257.93933 C 17.501951,258.82622 18.217656,259.54194 19.104543,259.5419 L 367.33687,259.5419 C 368.22375,259.54194 368.93944,258.82618 368.93944,257.93933 L 368.93944,17.671088 C 368.93944,16.784205 368.22375,16.068496 367.33687,16.068496 L 19.104543,16.068496 z M 138.09396,127.34619 L 248.37154,127.34619 C 248.59325,127.34618 248.80646,127.38589 248.99812,127.46669 C 249.18977,127.54748 249.35952,127.6594 249.5042,127.80408 C 249.64887,127.94875 249.76079,128.13055 249.84158,128.32221 C 249.92238,128.51385 249.97413,128.71501 249.97413,128.93673 L 249.97413,155.4819 C 249.97413,155.70365 249.92238,155.91684 249.84158,156.10847 C 249.76078,156.30015 249.64888,156.46988 249.5042,156.61459 C 249.35951,156.75923 249.18977,156.88323 248.99812,156.96401 C 248.80646,157.04479 248.59326,157.08451 248.37154,157.08451 L 138.09396,157.08451 C 137.87224,157.08451 137.65904,157.04479 137.46738,156.96401 C 137.27573,156.88319 137.10598,156.75927 136.9613,156.61459 C 136.81662,156.46988 136.70471,156.30015 136.62391,156.10847 C 136.54312,155.91684 136.49137,155.70365 136.49137,155.4819 L 136.49137,128.93673 C 136.49137,128.71501 136.54312,128.51386 136.62391,128.32221 C 136.70471,128.13054 136.81662,127.94875 136.9613,127.80408 C 137.10598,127.65939 137.27573,127.54748 137.46738,127.46669 C 137.65904,127.38588 137.87224,127.34619 138.09396,127.34619 z "
       id="rect3131" />
    <path
       style="opacity:1;fill:#e6e6e6;fill-opacity:1;stroke:none;stroke-width:1;stroke-linecap:butt;stroke-linejoin:miter;stroke-miterlimit:4;stroke-dasharray:none;stroke-dashoffset:0;stroke-opacity:1;display:inline"
       d="M 108.02718,441.32589 C 107.14029,441.32589 106.42458,442.04159 106.42458,442.92848 L 106.42458,683.19672 C 106.42458,684.08361 107.14029,684.79933 108.02718,684.79929 L 456.2595,684.79929 C 457.14638,684.79933 457.86207,684.08357 457.86207,683.19672 L 457.86207,442.92848 C 457.86207,442.0416 457.14638,441.32589 456.2595,441.32589 L 108.02718,441.32589 z M 227.01659,552.60358 L 337.29417,552.60358 C 337.51588,552.60357 337.72909,552.64328 337.92075,552.72408 C 338.1124,552.80487 338.28215,552.91679 338.42683,553.06147 C 338.5715,553.20614 338.68342,553.38794 338.76421,553.5796 C 338.84501,553.77124 338.89676,553.9724 338.89676,554.19412 L 338.89676,580.73929 C 338.89676,580.96104 338.84501,581.17423 338.76421,581.36586 C 338.68341,581.55754 338.57151,581.72727 338.42683,581.87198 C 338.28214,582.01662 338.1124,582.14062 337.92075,582.2214 C 337.72909,582.30218 337.51589,582.3419 337.29417,582.3419 L 227.01659,582.3419 C 226.79487,582.3419 226.58167,582.30218 226.39001,582.2214 C 226.19836,582.14058 226.02861,582.01666 225.88393,581.87198 C 225.73925,581.72727 225.62734,581.55754 225.54654,581.36586 C 225.46575,581.17423 225.414,580.96104 225.414,580.73929 L 225.414,554.19412 C 225.414,553.9724 225.46575,553.77125 225.54654,553.5796 C 225.62734,553.38793 225.73925,553.20614 225.88393,553.06147 C 226.02861,552.91678 226.19836,552.80487 226.39001,552.72408 C 226.58167,552.64327 226.79487,552.60358 227.01659,552.60358 z "
       id="path3181" />
  </g>
</svg>
