<?xml version="1.0" encoding="utf-8"?>
<!-- Generator: Adobe Illustrator 16.0.0, SVG Export Plug-In . SVG Version: 6.00 Build 0)  -->
<!DOCTYPE svg PUBLIC "-//W3C//DTD SVG 1.1//EN" "http://www.w3.org/Graphics/SVG/1.1/DTD/svg11.dtd">
<svg version="1.1" xmlns="http://www.w3.org/2000/svg" xmlns:xlink="http://www.w3.org/1999/xlink" x="0px" y="0px"
	 width="511.992px" height="145.025px" viewBox="0 0 511.992 145.025" enable-background="new 0 0 511.992 145.025"
	 xml:space="preserve">
<g id="logomark">
	<g>
		<path d="M12.715,117.834c-3.584,0-6.6-1.137-9.045-3.408c-2.447-2.273-3.67-5.551-3.67-9.83V13.367c0-4.279,1.223-7.558,3.67-9.83
			c2.445-2.271,5.461-3.408,9.045-3.408h14.287v13.633h-9.045v90.439h9.045v13.633H12.715z"/>
	</g>
	<path d="M44.375,117.834v11.807h17.549v15.416H45.688c-6.451,0-11.18-1.639-14.186-4.92c-3.008-3.279-4.51-7.707-4.51-13.283v-9.02
		H44.375z"/>
	<path d="M39.063,43.014c3.66,0,6.635,2.978,6.635,6.636c0,3.659-2.975,6.637-6.635,6.637s-6.637-2.978-6.637-6.637
		C32.426,45.991,35.402,43.014,39.063,43.014"/>
	<g>
		<rect x="30.768" y="0.13" transform="matrix(-1 -0.0023 0.0023 -1 64.5193 13.9412)" width="3" height="13.608"/>
	</g>
	<g>
		<rect x="37.562" y="0.13" transform="matrix(-1 -0.002 0.002 -1 78.1099 13.9449)" width="3" height="13.608"/>
	</g>
	<path d="M96.362,56.687c1.658-1,3.099-2.25,4.318-3.729c1.23-1.49,2.211-3.17,2.951-5.051c0.75-1.88,1.119-3.869,1.119-5.959
		v-28.19h9.041V0.127H99.5c-3.58,0-6.59,1.14-9.039,3.41c-2.451,2.269-3.67,5.55-3.67,9.83v26.479c0,3.841-1.202,6.75-3.6,8.72
		c-1.211,0.981-2.58,1.722-4.102,2.211c-1.529-0.489-2.898-1.221-4.109-2.211c-2.4-1.97-3.609-4.879-3.609-8.72V13.367
		c0-4.28-1.221-7.561-3.67-9.83c-2.441-2.27-5.461-3.41-9.041-3.41H44.371v13.632h9.049v28.19c0,2.09,0.371,4.079,1.111,5.959
		c0.74,1.881,1.728,3.561,2.949,5.051c1.221,1.479,2.67,2.729,4.33,3.729c1.66,1.01,3.4,1.68,5.24,2.029v0.53
		c-1.84,0.349-3.58,1.029-5.24,2.029s-3.109,2.25-4.33,3.729c-1.22,1.49-2.209,3.169-2.949,5.05
		c-0.74,1.881-1.111,3.871-1.111,5.961v12.261l-6.106-1.397c-1.078-0.251-2.149,0.426-2.396,1.503
		c-0.246,1.077,0.427,2.149,1.503,2.396l6.999,1.603v11.824h-9.049v13.629H58.66c3.58,0,6.6-1.138,9.041-3.408
		c2.449-2.271,3.67-5.551,3.67-9.83V77.986c0-3.84,1.209-6.75,3.609-8.719c1.211-0.991,2.58-1.73,4.109-2.221
		c1.522,0.5,2.891,1.241,4.102,2.221c2.399,1.969,3.6,4.879,3.6,8.719v26.611c0,4.279,1.219,7.56,3.67,9.83
		c2.449,2.269,5.459,3.408,9.039,3.408h14.291v-13.629h-9.041V76.017c0-2.09-0.369-4.08-1.119-5.961
		c-0.74-1.881-1.721-3.56-2.951-5.05c-1.218-1.479-2.66-2.729-4.318-3.729c-1.66-1-3.41-1.68-5.24-2.029v-0.53
		C92.952,58.367,94.702,57.698,96.362,56.687z"/>
</g>
<g id="wordmark">
	<g id="Layer_1_1_">
		<g>
			<path d="M183.717,108.99h-0.348c-1.316,2.759-3.52,5.188-6.612,7.295c-3.094,2.105-7.116,3.158-12.064,3.158
				c-7.734,0-13.746-2.608-18.038-7.83c-4.292-5.22-6.438-12.894-6.438-23.024c0-10.13,2.146-17.806,6.438-23.026
				c4.292-5.22,10.304-7.83,18.038-7.83c4.948,0,8.97,1.044,12.064,3.133c3.092,2.089,5.296,4.563,6.612,7.425h0.348v-9.164h4.06
				v82.128h-4.06V108.99z M165.273,115.848c2.474,0,4.832-0.348,7.076-1.046c2.242-0.696,4.194-1.703,5.858-3.021
				c1.662-1.317,2.996-2.888,4.002-4.709c1.004-1.821,1.508-3.854,1.508-6.104V76.091c0-2.168-0.504-4.163-1.508-5.985
				c-1.006-1.82-2.34-3.371-4.002-4.649c-1.664-1.278-3.616-2.286-5.858-3.021c-2.244-0.735-4.602-1.104-7.076-1.104
				c-6.574,0-11.658,2.15-15.254,6.452c-3.596,4.301-5.394,10.132-5.394,17.493v6.742c0,7.362,1.798,13.176,5.394,17.438
				C153.615,113.718,158.7,115.848,165.273,115.848z"/>
			<path d="M222.228,119.443c-7.733,0-13.823-2.628-18.27-7.888c-4.448-5.258-6.67-12.914-6.67-22.968
				c0-10.13,2.222-17.806,6.67-23.026c4.446-5.22,10.536-7.83,18.27-7.83c7.732,0,13.822,2.61,18.271,7.83
				c4.445,5.222,6.67,12.896,6.67,23.026c0,10.054-2.225,17.71-6.67,22.968C236.05,116.815,229.96,119.443,222.228,119.443z
				 M222.228,115.848c6.572,0,11.639-2.146,15.196-6.438c3.556-4.292,5.336-10.188,5.336-17.69v-6.264
				c0-7.578-1.78-13.494-5.336-17.748c-3.558-4.252-8.624-6.38-15.196-6.38c-6.573,0-11.64,2.128-15.195,6.38
				c-3.559,4.254-5.337,10.17-5.337,17.748v6.264c0,7.502,1.778,13.398,5.337,17.69
				C210.588,113.702,215.654,115.848,222.228,115.848z"/>
			<path d="M276.63,119.443c-7.732,0-13.822-2.628-18.27-7.888c-4.448-5.258-6.67-12.914-6.67-22.968
				c0-10.13,2.222-17.806,6.67-23.026c4.446-5.22,10.536-7.83,18.27-7.83c7.732,0,13.822,2.61,18.271,7.83
				c4.445,5.222,6.67,12.896,6.67,23.026c0,10.054-2.225,17.71-6.67,22.968C290.453,116.815,284.363,119.443,276.63,119.443z
				 M276.63,115.848c6.572,0,11.64-2.146,15.197-6.438c3.555-4.292,5.336-10.188,5.336-17.69v-6.264
				c0-7.578-1.781-13.494-5.336-17.748c-3.559-4.252-8.625-6.38-15.197-6.38s-11.639,2.128-15.194,6.38
				c-3.56,4.254-5.337,10.17-5.337,17.748v6.264c0,7.502,1.777,13.398,5.337,17.69C264.992,113.702,270.058,115.848,276.63,115.848z
				"/>
			<path d="M301.917,118.052l21.924-29.696l-21.227-29.23h4.756l18.676,25.868h0.232l18.791-25.868h4.641l-21.229,29l21.809,29.928
				h-4.756L326.279,91.49h-0.232l-19.488,26.563L301.917,118.052L301.917,118.052z"/>
			<path d="M394.138,108.99h-0.35c-1.314,2.759-3.52,5.188-6.611,7.295c-3.094,2.105-7.115,3.158-12.063,3.158
				c-7.734,0-13.746-2.608-18.039-7.83c-4.291-5.22-6.438-12.894-6.438-23.024c0-10.13,2.146-17.806,6.438-23.026
				c4.293-5.22,10.305-7.83,18.039-7.83c4.947,0,8.969,1.044,12.063,3.133s5.297,4.563,6.611,7.425h0.35V32.212h4.061v85.84h-4.061
				V108.99z M375.693,115.848c2.475,0,4.832-0.348,7.076-1.046c2.242-0.696,4.193-1.703,5.857-3.021
				c1.662-1.317,2.996-2.888,4.002-4.709c1.004-1.821,1.508-3.854,1.508-6.104V76.091c0-2.168-0.504-4.163-1.508-5.985
				c-1.006-1.82-2.34-3.371-4.002-4.649c-1.664-1.278-3.615-2.286-5.857-3.021c-2.244-0.735-4.604-1.104-7.076-1.104
				c-6.574,0-11.658,2.15-15.254,6.452c-3.596,4.301-5.395,10.132-5.395,17.493v6.742c0,7.362,1.799,13.176,5.395,17.438
				C364.035,113.718,369.119,115.848,375.693,115.848z"/>
			<path d="M432.648,119.443c-7.734,0-13.824-2.628-18.271-7.888c-4.447-5.258-6.67-12.914-6.67-22.968
				c0-10.13,2.223-17.806,6.67-23.026c4.447-5.22,10.537-7.83,18.271-7.83c7.73,0,13.82,2.61,18.27,7.83
				c4.445,5.222,6.67,12.896,6.67,23.026c0,10.054-2.225,17.71-6.67,22.968C446.47,116.815,440.38,119.443,432.648,119.443z
				 M432.648,115.848c6.57,0,11.639-2.146,15.195-6.438s5.336-10.188,5.336-17.69v-6.264c0-7.578-1.779-13.494-5.336-17.748
				c-3.559-4.252-8.625-6.38-15.195-6.38c-6.574,0-11.641,2.128-15.195,6.38c-3.561,4.254-5.338,10.17-5.338,17.748v6.264
				c0,7.502,1.777,13.398,5.338,17.69C421.007,113.702,426.074,115.848,432.648,115.848z"/>
			<path d="M487.05,119.443c-7.732,0-13.822-2.628-18.27-7.888c-4.447-5.258-6.67-12.914-6.67-22.968
				c0-10.13,2.223-17.806,6.67-23.026c4.445-5.22,10.537-7.83,18.27-7.83s13.822,2.61,18.271,7.83
				c4.445,5.222,6.67,12.896,6.67,23.026c0,10.054-2.225,17.71-6.67,22.968C500.873,116.815,494.783,119.443,487.05,119.443z
				 M487.05,115.848c6.572,0,11.641-2.146,15.197-6.438c3.555-4.292,5.336-10.188,5.336-17.69v-6.264
				c0-7.578-1.781-13.494-5.336-17.748c-3.559-4.252-8.625-6.38-15.197-6.38s-11.639,2.128-15.193,6.38
				c-3.561,4.254-5.338,10.17-5.338,17.748v6.264c0,7.502,1.777,13.398,5.338,17.69C475.412,113.702,480.478,115.848,487.05,115.848
				z"/>
		</g>
	</g>
</g>
</svg>
